<svg width="123" height="21" xmlns="http://www.w3.org/2000/svg">
 <!-- Created by Sindre Sorhus -->
 <defs>
  <filter height="20" width="111" y="0" x="0" filterUnits="userSpaceOnUse" id="a"/>
  <linearGradient y2="1" x2="0.49962" y1="0" x1="0.49962" id="c">
   <stop stop-opacity="0.1" stop-color="#BBB" offset="0"/>
   <stop stop-opacity="0.1" offset="1"/>
  </linearGradient>
  <linearGradient y2="0.29453" x2="0.62891" y1="0" x1="0" id="svg_42">
   <stop offset="0" stop-color="#ffffff"/>
   <stop offset="1" stop-color="#000000"/>
  </linearGradient>
  <radialGradient r="1.62316" cy="0.5" cx="0.5" spreadMethod="pad" id="svg_56">
   <stop offset="0" stop-opacity="0.99609" stop-color="#191919"/>
   <stop offset="1" stop-opacity="0.99609" stop-color="#3f007f"/>
  </radialGradient>
 </defs>
 <mask id="b" height="20" width="111" y="0" x="0" maskUnits="userSpaceOnUse">
  <path id="svg_1" d="m3,0l104,0c1.66,0 3,1.34 3,3l0,14c0,1.66 -1.34,3 -3,3l-104,0c-1.66,0 -3,-1.34 -3,-3l0,-14c0,-1.66 1.34,-3 3,-3z" filter="url(#a)" fill="#FFF"/>
 </mask>
 <g>
  <title>background</title>
  <rect fill="none" id="canvas_background" height="23" width="125" y="-1" x="-1"/>
 </g>
 <g>
  <title>Layer 1</title>
  <path stroke="#ffffff" id="svg_9" d="m18.08459,13.89355l3.71778,-3.87598l0,1.93799l5.57666,0l0,-5.81397l-1.85889,0l3.71777,-3.87598l3.71777,3.87598l-1.85889,0l0,9.68994l-9.29443,0l0,1.93799l-3.71778,-3.87598l0,0l0.00001,0.00001z" stroke-linecap="null" stroke-linejoin="null" stroke-dasharray="null" stroke-width="null" fill="#007fff"/>
  <rect rx="11" id="svg_53" height="32.04786" width="48.67706" y="-5.7418" x="-2.30262" stroke-width="null" fill="#007fff" stroke="#ffffff"/>
  <rect stroke="null" rx="6" id="svg_41" height="28.86727" width="81.83223" y="-4.06879" x="41.06247" stroke-width="null" fill="#d8d6d6"/>
  <g id="svg_2" mask="url(#b)">
   <path id="svg_3" d="m21.49993,-22.24995l33.99999,0l0,20l-33.99999,0l0,-20z" fill="#CCA6C4"/>
   <path id="svg_4" d="m55.49992,-22.24995l77,0l0,20l-77,0l0,-20z" fill="#494368"/>
   <path id="svg_5" d="m21.49993,-22.24995l110.99999,0l0,20l-110.99999,0l0,-20z" fill="url(#c)"/>
  </g>
  <text transform="matrix(0.814019,0,0,0.6389689999999999,44.4452953125,20.5623) " xml:space="preserve" text-anchor="start" font-family="Georgia, Times, 'Times New Roman', serif" font-size="24" id="svg_39" y="-8.26294" x="-1.15036" stroke-width="0" stroke="null" fill="#999999">translate</text>
  <rect id="svg_43" height="0" width="3.00001" y="18.05628" x="67.43754" fill-opacity="0.62" stroke-opacity="null" stroke-width="null" stroke="null" fill="url(#svg_42)"/>
  <text transform="matrix(0.814019,0,0,0.652025,44.6826,21.0758) " xml:space="preserve" text-anchor="start" font-family="Georgia, Times, 'Times New Roman', serif" font-size="24" id="svg_47" y="-7.79946" x="-1.92174" stroke-width="0" stroke="null" fill="#776f6f">translate</text>
  <rect id="svg_54" height="0.125" width="0" y="31.18099" x="44.81263" stroke-opacity="null" stroke-width="null" stroke="#ffaaaa" fill="url(#svg_56)"/>
  <path transform="rotate(180 17.166566848754883,7.9661865234375) " id="svg_12" d="m10.46724,10.9822l3.34966,-3.01602l0,1.50801l5.02449,0l0,-4.52403l-1.67483,0l3.34966,-3.01602l3.34966,3.01602l-1.67483,0l0,7.54005l-8.37415,0l0,1.50801l-3.34966,-3.01602l0,0l0,-0.00001l0,0.00001z" stroke-linecap="null" stroke-linejoin="null" stroke-width="null" fill="#ffffff" stroke="#ffffff"/>
  <path id="svg_6" d="m16.43215,16.24536l3.34966,-3.01602l0,1.50801l5.02449,0l0,-4.52403l-1.67483,0l3.34966,-3.01601l3.34967,3.01601l-1.67483,0l0,7.54005l-8.37416,0l0,1.50801l-3.34966,-3.01602l0,0l0,0z" stroke-linecap="null" stroke-linejoin="null" stroke-width="null" fill="#ffffff" stroke="#ffffff"/>
 </g>
</svg>